<?xml version="1.0" encoding="UTF-8" standalone="no"?>
<svg
   width="34"
   height="34"
   version="1.1"
   id="svg4"
   sodipodi:docname="icon-dice.svg"
   inkscape:version="1.1 (c68e22c387, 2021-05-23)"
   xmlns:inkscape="http://www.inkscape.org/namespaces/inkscape"
   xmlns:sodipodi="http://sodipodi.sourceforge.net/DTD/sodipodi-0.dtd"
   xmlns="http://www.w3.org/2000/svg"
   xmlns:svg="http://www.w3.org/2000/svg">
  <defs
     id="defs8" />
  <sodipodi:namedview
     id="namedview6"
     pagecolor="#ffffff"
     bordercolor="#666666"
     borderopacity="1.0"
     inkscape:pageshadow="2"
     inkscape:pageopacity="0.0"
     inkscape:pagecheckerboard="0"
     showgrid="false"
     inkscape:zoom="11.313709"
     inkscape:cx="5.9220193"
     inkscape:cy="15.423767"
     inkscape:window-width="1920"
     inkscape:window-height="1001"
     inkscape:window-x="-9"
     inkscape:window-y="-9"
     inkscape:window-maximized="1"
     inkscape:current-layer="svg4" />
  <path
     id="path46134"
     style="fill:#181f26;fill-opacity:1;stroke:#181f26;stroke-width:0.188995px;stroke-linecap:butt;stroke-linejoin:miter;stroke-opacity:1"
     d="m 0.9246539,0.27427941 c 0,0 -2.6761604,6.93411719 1.5737246,11.69049359 C 7.7389342,12.331895 7.0519757,6.3907995 7.0519757,6.3907995 2.4186013,4.7385707 0.9246539,0.27427941 0.9246539,0.27427941 Z m 32.1506731,0 c 0,0 -1.493968,4.46429129 -6.127342,6.11652009 0,0 -0.686939,5.9410955 4.553577,5.5739735 4.249925,-4.7563764 1.573765,-11.69049359 1.573765,-11.69049359 z" />
  <path
     id="path46136"
     style="fill:#181f26;fill-opacity:1;stroke:none;stroke-width:3.45067;stroke-linecap:round;stroke-opacity:1"
     d="M 17.035505,3.9674594 A 14.375706,15.016281 0 0 0 2.6598102,18.983734 14.375706,15.016281 0 0 0 17.035505,34.00001 14.375706,15.016281 0 0 0 31.411222,18.983734 14.375706,15.016281 0 0 0 17.035505,3.9674594 Z M 8.3244782,14.030067 14.346069,16.272886 c 0,0 -0.890404,1.663904 -2.565888,2.117063 -1.675484,0.453165 -3.6950806,-0.859619 -3.4557028,-4.359882 z m 17.4786288,0 C 26.04248,17.53033 24.022819,18.843114 22.347378,18.389949 20.671894,17.93679 19.78149,16.272886 19.78149,16.272886 Z M 9.8644077,23.251762 H 24.314446 c 0,0 -1.460494,3.159321 -5.099348,3.888571 -3.638801,0.729249 -7.488946,-0.264372 -9.3506903,-3.888571 z" />
</svg>
