<?xml version="1.0" encoding="UTF-8" standalone="no"?>
<svg
   width="34"
   height="34"
   version="1.1"
   id="svg4"
   sodipodi:docname="icon-dice.svg"
   inkscape:version="1.1 (c68e22c387, 2021-05-23)"
   xmlns:inkscape="http://www.inkscape.org/namespaces/inkscape"
   xmlns:sodipodi="http://sodipodi.sourceforge.net/DTD/sodipodi-0.dtd"
   xmlns="http://www.w3.org/2000/svg"
   xmlns:svg="http://www.w3.org/2000/svg">
  <defs
     id="defs8" />
  <sodipodi:namedview
     id="namedview6"
     pagecolor="#ffffff"
     bordercolor="#666666"
     borderopacity="1.0"
     inkscape:pageshadow="2"
     inkscape:pageopacity="0.0"
     inkscape:pagecheckerboard="0"
     showgrid="false"
     inkscape:zoom="16.916667"
     inkscape:cx="16.256158"
     inkscape:cy="16.935961"
     inkscape:window-width="1920"
     inkscape:window-height="1001"
     inkscape:window-x="-9"
     inkscape:window-y="-9"
     inkscape:window-maximized="1"
     inkscape:current-layer="svg4" />
  <g
     id="g46138"
     transform="matrix(2.0258288,0,0,2.1160988,559.49318,-372.92446)">
    <path
       id="path46134"
       style="fill:#0f1318;fill-opacity:1;stroke:#0f1318;stroke-width:0.0912811px;stroke-linecap:butt;stroke-linejoin:miter;stroke-opacity:1"
       d="m -275.72346,176.36168 c 0,0 -1.32102,3.27684 0.77683,5.52455 2.58687,0.17349 2.24777,-2.63408 2.24777,-2.63408 -2.28715,-0.78079 -3.0246,-2.89047 -3.0246,-2.89047 z m 15.87038,0 c 0,0 -0.73746,2.10968 -3.02461,2.89047 0,0 -0.33909,2.80757 2.24776,2.63408 2.09787,-2.24771 0.77685,-5.52455 0.77685,-5.52455 z" />
    <path
       id="path46136"
       style="fill:#0f1318;fill-opacity:1;stroke:none;stroke-width:6.299;stroke-linecap:round;stroke-opacity:1"
       d="m -1012.0469,673.16016 a 26.820321,26.820321 0 0 0 -26.8203,26.82031 26.820321,26.820321 0 0 0 26.8203,26.82031 26.820321,26.820321 0 0 0 26.82034,-26.82031 26.820321,26.820321 0 0 0 -26.82034,-26.82031 z m -16.2519,17.97265 11.2343,4.00586 c 0,0 -1.6612,2.97187 -4.7871,3.78125 -3.1259,0.80939 -6.8938,-1.53535 -6.4472,-7.78711 z m 32.60935,0 c 0.44659,6.25176 -3.32143,8.5965 -6.44725,7.78711 -3.1259,-0.80938 -4.7871,-3.78125 -4.7871,-3.78125 z m -29.73635,16.47071 h 26.959 c 0,0 -2.7248,5.64281 -9.5137,6.94531 -6.7888,1.3025 -13.9719,-0.47219 -17.4453,-6.94531 z"
       transform="scale(0.26458333)" />
  </g>
</svg>
