<?xml version="1.0" encoding="UTF-8" standalone="no"?>
<!-- Created with Inkscape (http://www.inkscape.org/) -->

<svg
   width="15.5"
   height="15"
   viewBox="0 0 4.1010418 3.9687501"
   version="1.1"
   id="svg1551"
   inkscape:version="1.1 (c68e22c387, 2021-05-23)"
   sodipodi:docname="icon-photo.svg"
   xmlns:inkscape="http://www.inkscape.org/namespaces/inkscape"
   xmlns:sodipodi="http://sodipodi.sourceforge.net/DTD/sodipodi-0.dtd"
   xmlns="http://www.w3.org/2000/svg"
   xmlns:svg="http://www.w3.org/2000/svg">
  <sodipodi:namedview
     id="namedview1553"
     pagecolor="#ffffff"
     bordercolor="#666666"
     borderopacity="1.0"
     inkscape:pageshadow="2"
     inkscape:pageopacity="0.0"
     inkscape:pagecheckerboard="0"
     inkscape:document-units="mm"
     showgrid="false"
     units="px"
     inkscape:snap-nodes="true"
     inkscape:zoom="1.4467452"
     inkscape:cx="-159.66875"
     inkscape:cy="36.979559"
     inkscape:window-width="1920"
     inkscape:window-height="1001"
     inkscape:window-x="-9"
     inkscape:window-y="-9"
     inkscape:window-maximized="1"
     inkscape:current-layer="layer1" />
  <defs
     id="defs1548" />
  <g
     inkscape:label="Layer 1"
     inkscape:groupmode="layer"
     id="layer1">
    <path
       id="path911"
       style="opacity:0.43;fill:#ffffff;stroke-width:0.0217457"
       d="m 2.0516169,-2.5e-6 c -1.64665895,0 -1.77691395,0.0029 -1.84240695,0.04105 -0.09507,0.05539 -0.126093,0.04003 -0.136151,0.546383 0.06892,-0.019 0.189152,-0.02269 0.277898,-0.0227 0.0054,-0.149005 0.02106,-0.16759 0.03947,-0.189069 0.0396,-0.04617 0.06712,-0.04697 1.66118695,-0.04697 1.594069,0 1.621584,8.01e-4 1.661186,0.04697 0.03934,0.04589 0.04027,0.07828 0.04027,1.409073 0,0.749154 -0.0023,1.361481 -0.005,1.360681 -0.0028,-8.01e-4 -0.204376,-0.253702 -0.448017,-0.56207 -0.24364,-0.308367 -0.463334,-0.571673 -0.48821,-0.585141 -0.06095,-0.033 -0.110413,-0.0073 -0.263178,0.136504 -0.197566,0.186019 -0.179499,0.195858 -0.585977,-0.318829 -0.124196,-0.15726 -0.250126,-0.295591 -0.279854,-0.307364 -0.12638,-0.05005 -0.146561,-0.02799 -0.74678695,0.816133 -0.31237,0.4393 -0.571959,0.798705 -0.576891,0.798705 -0.0049,0 -0.009,-3.458026 -0.009,-2.715328 v 0.07542 l -0.277096,0.103991 -0.0048,1.396917 c -0.0067,1.943116 -0.0062,1.857602 0.140908,1.943299 0.06549,0.03816 0.195749,0.0411 1.84240795,0.0411 1.646658,0 1.776915,-0.0029 1.842406,-0.0411 0.147091,-0.0857 0.140871,-2.83e-4 0.140871,-1.943299 0,-1.943134 0.0062,-1.857602 -0.140871,-1.943302 -0.06549,-0.03816 -0.195748,-0.04105 -1.842406,-0.04105 z m 0.984443,0.666923 c -0.06089,-7.08e-4 -0.117973,0.0194 -0.191563,0.06284 -0.291309,0.171928 -0.290952,0.679918 6.07e-4,0.859433 v 0 c 0.171954,0.105881 0.396446,0.05353 0.519988,-0.121276 0.194175,-0.274746 0.08492,-0.677548 -0.210994,-0.777878 -0.04362,-0.01479 -0.08153,-0.02271 -0.118058,-0.02312 z"
       sodipodi:nodetypes="csccsssssssssssssccsssssscccssssscc" />
    <path
       style="opacity:0.43;fill:#ffffff;stroke-width:0.0112123"
       d="m 0.21150262,-8.8655521 c -0.0462587,-0.029117 -0.0772292,-0.067717 -0.098126,-0.1222972 -0.01796923,-0.046949 -0.0188465,-0.1137296 -0.0188465,-1.4344097 0,-1.32068 8.7727e-4,-1.387452 0.0188465,-1.43441 0.022809,-0.0596 0.0551398,-0.09711 0.10559263,-0.122538 0.0327349,-0.0165 0.12178268,-0.01905 0.66265353,-0.01905 H 1.5064541 l -0.060374,0.05137 c -0.1033717,0.08796 -0.2239104,0.21478 -0.3019637,0.31769 l -0.074933,0.0988 -0.29355187,7e-6 -0.29355294,7e-6 v 1.108128 1.1081276 H 1.758394 3.034708 v -0.3618261 -0.3618255 l 0.1914467,-0.187022 0.1914477,-0.187022 0.00266,0.6968892 c 0.00256,0.679083 0.00207,0.6981395 -0.018068,0.7458343 -0.011395,0.026919 -0.039812,0.064189 -0.063153,0.082818 l -0.042444,0.033878 -1.5272189,0.00306 c -1.36934684,0.00276 -1.53038583,0.00108 -1.55785027,-0.016205 z M 1.0789639,-10.114446 c 0.010231,-0.122044 0.034095,-0.274941 0.066396,-0.425458 0.084523,-0.393896 0.2313683,-0.724325 0.4339455,-0.976495 0.2615997,-0.325637 0.5984296,-0.502595 1.0035888,-0.527246 l 0.1250789,-0.0077 v -0.367543 -0.367542 l 0.4313946,0.391502 c 0.5216862,0.473446 0.8578685,0.779554 0.8669823,0.789424 0.00375,0.004 -0.058314,0.06595 -0.1378417,0.137633 -0.079526,0.07168 -0.3008096,0.27079 -0.4917467,0.442471 -0.1909361,0.17168 -0.4195248,0.377469 -0.5079733,0.457306 l -0.1608152,0.145159 v -0.395623 -0.395624 l -0.1431821,0.0079 c -0.203074,0.01115 -0.3119303,0.02907 -0.468093,0.07713 -0.3717788,0.114402 -0.6112643,0.351552 -0.9251837,0.916162 l -0.099263,0.178532 z"
       id="path852" />
  </g>
</svg>
