<?xml version="1.0" encoding="UTF-8" standalone="no"?>
<!-- Created with Inkscape (http://www.inkscape.org/) -->

<svg
   width="15.5"
   height="15"
   viewBox="0 0 4.1010418 3.9687501"
   version="1.1"
   id="svg1551"
   inkscape:version="1.1 (c68e22c387, 2021-05-23)"
   sodipodi:docname="icon-photo.svg"
   xmlns:inkscape="http://www.inkscape.org/namespaces/inkscape"
   xmlns:sodipodi="http://sodipodi.sourceforge.net/DTD/sodipodi-0.dtd"
   xmlns="http://www.w3.org/2000/svg"
   xmlns:svg="http://www.w3.org/2000/svg">
  <sodipodi:namedview
     id="namedview1553"
     pagecolor="#ffffff"
     bordercolor="#666666"
     borderopacity="1.0"
     inkscape:pageshadow="2"
     inkscape:pageopacity="0.0"
     inkscape:pagecheckerboard="0"
     inkscape:document-units="mm"
     showgrid="false"
     units="px"
     inkscape:snap-nodes="true"
     inkscape:zoom="5.7869809"
     inkscape:cx="-62.89981"
     inkscape:cy="15.638552"
     inkscape:window-width="1920"
     inkscape:window-height="1001"
     inkscape:window-x="-9"
     inkscape:window-y="-9"
     inkscape:window-maximized="1"
     inkscape:current-layer="layer1" />
  <defs
     id="defs1548" />
  <g
     inkscape:label="Layer 1"
     inkscape:groupmode="layer"
     id="layer1">
    <path
       id="path911"
       style="opacity:0.43;fill:#000000;stroke-width:0.0217457"
       d="m 18.87674,-2.5e-6 c -1.646659,0 -1.776914,0.0029 -1.842407,0.04105 -0.09507,0.05539 -0.126093,0.04003 -0.136151,0.546383 0.06892,-0.019 0.189152,-0.02269 0.277898,-0.0227 0.0054,-0.149005 0.02106,-0.16759 0.03947,-0.189069 0.0396,-0.04617 0.06712,-0.04697 1.661187,-0.04697 1.594069,0 1.621584,8.01e-4 1.661186,0.04697 0.03934,0.04589 0.04027,0.07828 0.04027,1.409073 0,0.749154 -0.0023,1.361481 -0.005,1.360681 -0.0028,-8.01e-4 -0.204376,-0.253702 -0.448017,-0.56207 -0.24364,-0.308367 -0.463334,-0.571673 -0.48821,-0.585141 -0.06095,-0.033 -0.110413,-0.0073 -0.263178,0.136504 -0.197566,0.186019 -0.179499,0.195858 -0.585977,-0.318829 -0.124196,-0.15726 -0.250126,-0.295591 -0.279854,-0.307364 -0.12638,-0.05005 -0.146561,-0.02799 -0.746787,0.816133 -0.31237,0.4393 -0.571959,0.798705 -0.576891,0.798705 -0.0049,0 -0.009,-3.458026 -0.009,-2.715328 v 0.07542 l -0.277096,0.103991 -0.0048,1.396917 c -0.0067,1.943116 -0.0062,1.857602 0.140908,1.943299 0.06549,0.03816 0.195749,0.0411 1.842408,0.0411 1.646658,0 1.776915,-0.0029 1.842406,-0.0411 0.147091,-0.0857 0.140871,-2.83e-4 0.140871,-1.943299 0,-1.943134 0.0062,-1.857602 -0.140871,-1.943302 -0.06549,-0.03816 -0.195748,-0.04105 -1.842406,-0.04105 z m 0.984443,0.666923 c -0.06089,-7.08e-4 -0.117973,0.0194 -0.191563,0.06284 -0.291309,0.171928 -0.290952,0.679918 6.07e-4,0.859433 v 0 c 0.171954,0.105881 0.396446,0.05353 0.519988,-0.121276 0.194175,-0.274746 0.08492,-0.677548 -0.210994,-0.777878 -0.04362,-0.01479 -0.08153,-0.02271 -0.118058,-0.02312 z"
       sodipodi:nodetypes="csccsssssssssssssccsssssscccssssscc" />
    <path
       style="fill:#ffffff;stroke-width:0.0112123;opacity:0.43"
       d="M 0.21150262,3.9361721 C 0.16524393,3.9070546 0.13427338,3.8684548 0.11337663,3.8138749 0.0954074,3.7669262 0.09453013,3.7001453 0.09453013,2.3794651 c 0,-1.3206802 8.7727e-4,-1.3874522 0.0188465,-1.43440975 0.022809,-0.059605 0.0551398,-0.0971107 0.10559263,-0.12253772 0.0327349,-0.0165005 0.12178268,-0.0190535 0.66265353,-0.0190535 H 1.5064541 l -0.060374,0.0513744 C 1.3427084,0.94280205 1.2221697,1.0696177 1.1441164,1.1725283 l -0.074933,0.0988 -0.29355187,6.9e-6 -0.29355294,6.9e-6 v 1.108128 1.1081277 H 1.758394 3.034708 V 3.1257717 2.7639465 l 0.1914467,-0.1870219 0.1914477,-0.1870229 0.00266,0.6968897 c 0.00256,0.679083 0.00207,0.6981395 -0.018068,0.7458343 -0.011395,0.026919 -0.039812,0.064189 -0.063153,0.082818 l -0.042444,0.033878 -1.5272189,0.00306 c -1.36934684,0.00276 -1.53038583,0.00108 -1.55785027,-0.016205 z M 1.0789639,2.6872781 C 1.0891954,2.5652342 1.1130591,2.4123371 1.1453604,2.2618204 1.2298837,1.8679246 1.3767287,1.5374949 1.5793059,1.2853254 1.8409056,0.959688 2.1777355,0.78273003 2.5828947,0.75807877 l 0.1250789,-0.007688 V 0.38284815 0.01530595 L 3.1393682,0.40680843 C 3.6610544,0.88025376 3.9972367,1.1863625 4.0063505,1.1962323 4.0100961,1.2002736 3.9480367,1.2621852 3.8685088,1.333865 3.7889829,1.4055447 3.5676992,1.6046552 3.3767621,1.7763358 3.185826,1.9480163 2.9572373,2.1538049 2.8687888,2.2336423 L 2.7079736,2.3788008 V 1.9831781 1.5875544 L 2.5647915,1.59544 C 2.3617175,1.6065882 2.2528612,1.6245081 2.0966985,1.6725706 1.7249197,1.7869724 1.4854342,2.0241219 1.1715148,2.5887322 l -0.099263,0.1785322 z"
       id="path852" />
  </g>
</svg>
